<svg id="visual" viewBox="0 0 2000 1100" width="2000" height="1100" xmlns="http://www.w3.org/2000/svg" xmlns:xlink="http://www.w3.org/1999/xlink" version="1.1"><g stroke-width="1" stroke-linejoin="bevel"><path d="M905.9 470L1130.1 629L1092.1 431Z" fill="#19435d" stroke="#19435d"></path><path d="M905.9 470L876.9 660L1130.1 629Z" fill="#00101c" stroke="#00101c"></path><path d="M1130.1 629L1325.3 452L1092.1 431Z" fill="#277297" stroke="#277297"></path><path d="M1325.3 452L1138.1 230L1092.1 431Z" fill="#19435d" stroke="#19435d"></path><path d="M1092.1 431L888.9 185L905.9 470Z" fill="#0c2435" stroke="#0c2435"></path><path d="M888.9 185L686.7 452L905.9 470Z" fill="#1d4e6b" stroke="#1d4e6b"></path><path d="M905.9 470L686.7 452L876.9 660Z" fill="#15384f" stroke="#15384f"></path><path d="M1327.3 888L1357.3 636L1130.1 629Z" fill="#1d4e6b" stroke="#1d4e6b"></path><path d="M1130.1 629L1357.3 636L1325.3 452Z" fill="#277297" stroke="#277297"></path><path d="M672.7 669L858.9 863L876.9 660Z" fill="#15384f" stroke="#15384f"></path><path d="M876.9 660L1141.1 907L1130.1 629Z" fill="#1d4e6b" stroke="#1d4e6b"></path><path d="M686.7 452L672.7 669L876.9 660Z" fill="#277297" stroke="#277297"></path><path d="M858.9 863L1141.1 907L876.9 660Z" fill="#297ea6" stroke="#297ea6"></path><path d="M1138.1 230L888.9 185L1092.1 431Z" fill="#0c2435" stroke="#0c2435"></path><path d="M1141.1 907L1327.3 888L1130.1 629Z" fill="#246688" stroke="#246688"></path><path d="M672.7 669L696.7 881L858.9 863Z" fill="#277297" stroke="#277297"></path><path d="M921.9 1100L1100.1 1100L1141.1 907Z" fill="#19435d" stroke="#19435d"></path><path d="M1325.3 452L1308.3 180L1138.1 230Z" fill="#277297" stroke="#277297"></path><path d="M1138.1 230L1076.1 0L888.9 185Z" fill="#19435d" stroke="#19435d"></path><path d="M1532.6 202L1308.3 180L1325.3 452Z" fill="#15384f" stroke="#15384f"></path><path d="M865.9 0L670.7 181L888.9 185Z" fill="#277297" stroke="#277297"></path><path d="M888.9 185L670.7 181L686.7 452Z" fill="#19435d" stroke="#19435d"></path><path d="M686.7 452L457.4 652L672.7 669Z" fill="#19435d" stroke="#19435d"></path><path d="M1327.3 888L1531.6 664L1357.3 636Z" fill="#1d4e6b" stroke="#1d4e6b"></path><path d="M1357.3 636L1569.6 440L1325.3 452Z" fill="#19435d" stroke="#19435d"></path><path d="M1308.3 180L1076.1 0L1138.1 230Z" fill="#277297" stroke="#277297"></path><path d="M1141.1 907L1304.3 1100L1327.3 888Z" fill="#00101c" stroke="#00101c"></path><path d="M921.9 1100L1141.1 907L858.9 863Z" fill="#1d4e6b" stroke="#1d4e6b"></path><path d="M1531.6 664L1569.6 440L1357.3 636Z" fill="#15384f" stroke="#15384f"></path><path d="M696.7 881L921.9 1100L858.9 863Z" fill="#19435d" stroke="#19435d"></path><path d="M1076.1 0L865.9 0L888.9 185Z" fill="#081a28" stroke="#081a28"></path><path d="M431.4 427L457.4 652L686.7 452Z" fill="#00101c" stroke="#00101c"></path><path d="M672.7 669L457.4 652L696.7 881Z" fill="#0c2435" stroke="#0c2435"></path><path d="M696.7 881L634.7 1100L921.9 1100Z" fill="#1d4e6b" stroke="#1d4e6b"></path><path d="M670.7 181L431.4 427L686.7 452Z" fill="#205a7a" stroke="#205a7a"></path><path d="M1569.6 440L1532.6 202L1325.3 452Z" fill="#00101c" stroke="#00101c"></path><path d="M1308.3 180L1308.3 0L1076.1 0Z" fill="#277297" stroke="#277297"></path><path d="M1532.6 202L1308.3 0L1308.3 180Z" fill="#246688" stroke="#246688"></path><path d="M1100.1 1100L1304.3 1100L1141.1 907Z" fill="#246688" stroke="#246688"></path><path d="M1327.3 888L1560.6 879L1531.6 664Z" fill="#205a7a" stroke="#205a7a"></path><path d="M1565.6 1100L1560.6 879L1327.3 888Z" fill="#0c2435" stroke="#0c2435"></path><path d="M1531.6 664L1769.8 638L1569.6 440Z" fill="#1d4e6b" stroke="#1d4e6b"></path><path d="M865.9 0L665.7 0L670.7 181Z" fill="#0c2435" stroke="#0c2435"></path><path d="M670.7 181L421.4 180L431.4 427Z" fill="#277297" stroke="#277297"></path><path d="M414.4 905L634.7 1100L696.7 881Z" fill="#246688" stroke="#246688"></path><path d="M465.4 0L421.4 180L670.7 181Z" fill="#0c2435" stroke="#0c2435"></path><path d="M197.2 628L414.4 905L457.4 652Z" fill="#205a7a" stroke="#205a7a"></path><path d="M457.4 652L414.4 905L696.7 881Z" fill="#19435d" stroke="#19435d"></path><path d="M229.2 473L457.4 652L431.4 427Z" fill="#0c2435" stroke="#0c2435"></path><path d="M1560.6 879L1769.8 638L1531.6 664Z" fill="#0c2435" stroke="#0c2435"></path><path d="M1569.6 440L1753.8 258L1532.6 202Z" fill="#1d4e6b" stroke="#1d4e6b"></path><path d="M1769.8 638L1778.8 439L1569.6 440Z" fill="#00101c" stroke="#00101c"></path><path d="M1304.3 1100L1565.6 1100L1327.3 888Z" fill="#297ea6" stroke="#297ea6"></path><path d="M1560.6 879L1794.8 859L1769.8 638Z" fill="#277297" stroke="#277297"></path><path d="M1753.8 258L1571.6 0L1532.6 202Z" fill="#00101c" stroke="#00101c"></path><path d="M1532.6 202L1571.6 0L1308.3 0Z" fill="#246688" stroke="#246688"></path><path d="M665.7 0L465.4 0L670.7 181Z" fill="#246688" stroke="#246688"></path><path d="M1778.8 439L1753.8 258L1569.6 440Z" fill="#00101c" stroke="#00101c"></path><path d="M414.4 905L451.4 1100L634.7 1100Z" fill="#112e42" stroke="#112e42"></path><path d="M185.2 218L431.4 427L421.4 180Z" fill="#00101c" stroke="#00101c"></path><path d="M185.2 218L229.2 473L431.4 427Z" fill="#15384f" stroke="#15384f"></path><path d="M414.4 905L232.2 1100L451.4 1100Z" fill="#00101c" stroke="#00101c"></path><path d="M229.2 473L197.2 628L457.4 652Z" fill="#19435d" stroke="#19435d"></path><path d="M1796.8 1100L1794.8 859L1560.6 879Z" fill="#1d4e6b" stroke="#1d4e6b"></path><path d="M1769.8 638L2000 476L1778.8 439Z" fill="#297ea6" stroke="#297ea6"></path><path d="M207.2 0L185.2 218L421.4 180Z" fill="#112e42" stroke="#112e42"></path><path d="M0 442L0 641L197.2 628Z" fill="#246688" stroke="#246688"></path><path d="M0 844L199.2 914L197.2 628Z" fill="#0c2435" stroke="#0c2435"></path><path d="M197.2 628L199.2 914L414.4 905Z" fill="#246688" stroke="#246688"></path><path d="M2000 208L1753.8 258L1778.8 439Z" fill="#081a28" stroke="#081a28"></path><path d="M2000 208L1771.8 0L1753.8 258Z" fill="#0c2435" stroke="#0c2435"></path><path d="M1753.8 258L1771.8 0L1571.6 0Z" fill="#277297" stroke="#277297"></path><path d="M1565.6 1100L1796.8 1100L1560.6 879Z" fill="#19435d" stroke="#19435d"></path><path d="M199.2 914L232.2 1100L414.4 905Z" fill="#205a7a" stroke="#205a7a"></path><path d="M465.4 0L207.2 0L421.4 180Z" fill="#277297" stroke="#277297"></path><path d="M2000 669L2000 476L1769.8 638Z" fill="#205a7a" stroke="#205a7a"></path><path d="M2000 669L1769.8 638L1794.8 859Z" fill="#112e42" stroke="#112e42"></path><path d="M2000 875L2000 669L1794.8 859Z" fill="#112e42" stroke="#112e42"></path><path d="M0 442L197.2 628L229.2 473Z" fill="#205a7a" stroke="#205a7a"></path><path d="M199.2 914L0 1100L232.2 1100Z" fill="#15384f" stroke="#15384f"></path><path d="M0 442L229.2 473L185.2 218Z" fill="#246688" stroke="#246688"></path><path d="M0 191L0 442L185.2 218Z" fill="#277297" stroke="#277297"></path><path d="M1796.8 1100L2000 875L1794.8 859Z" fill="#112e42" stroke="#112e42"></path><path d="M2000 476L2000 208L1778.8 439Z" fill="#00101c" stroke="#00101c"></path><path d="M0 641L0 844L197.2 628Z" fill="#00101c" stroke="#00101c"></path><path d="M207.2 0L0 191L185.2 218Z" fill="#277297" stroke="#277297"></path><path d="M2000 208L2000 0L1771.8 0Z" fill="#277297" stroke="#277297"></path><path d="M1796.8 1100L2000 1100L2000 875Z" fill="#205a7a" stroke="#205a7a"></path><path d="M207.2 0L0 0L0 191Z" fill="#081a28" stroke="#081a28"></path><path d="M0 844L0 1100L199.2 914Z" fill="#19435d" stroke="#19435d"></path></g></svg>